<svg width="21" height="21" viewBox="0 0 21 21" fill="none" xmlns="http://www.w3.org/2000/svg">
<path fill-rule="evenodd" clip-rule="evenodd" d="M15.7417 1.98174C16.1762 1.54725 16.7655 1.30316 17.38 1.30316C17.9945 1.30316 18.5838 1.54725 19.0183 1.98174L18.5542 2.44585L19.0183 1.98177C19.4528 2.41628 19.6969 3.00559 19.6969 3.62007C19.6969 4.23241 19.4545 4.81976 19.0228 5.25383L10.0396 14.5651C9.86555 14.7455 9.60392 14.811 9.3654 14.7338C9.12688 14.6567 8.95314 14.4504 8.91767 14.2023C8.87905 13.932 8.70282 13.5988 8.40121 13.299C8.10221 13.0019 7.73966 12.798 7.41594 12.732C7.18537 12.6851 6.99759 12.5183 6.92377 12.2949C6.84995 12.0714 6.90139 11.8256 7.0586 11.6505L15.7174 2.00735C15.7253 1.9986 15.7334 1.99006 15.7417 1.98174ZM18.0902 2.90985C17.9018 2.72148 17.6464 2.61566 17.38 2.61566C17.1187 2.61566 16.868 2.71743 16.6807 2.89901L8.65327 11.8391C8.9 11.9896 9.12744 12.1704 9.32638 12.3681C9.49633 12.537 9.65447 12.7273 9.78974 12.9337L18.082 4.3387C18.084 4.3366 18.086 4.33452 18.0881 4.33245C18.0888 4.33174 18.0895 4.33103 18.0902 4.33032C18.2786 4.14195 18.3844 3.88647 18.3844 3.62007C18.3844 3.35369 18.2786 3.09822 18.0902 2.90985Z" fill="#A6A2A0"/>
<path fill-rule="evenodd" clip-rule="evenodd" d="M2.78907 16.0314C2.78907 14.4335 4.06247 13.125 5.66016 13.125C7.25785 13.125 8.53125 14.4335 8.53125 16.0314C8.53125 18.0415 6.9256 19.6875 4.92188 19.6875C3.59635 19.6875 2.24301 19.0019 1.4418 17.9224C1.294 17.7233 1.27106 17.4579 1.38252 17.2364C1.49397 17.0148 1.72077 16.8751 1.96875 16.8751C2.11396 16.8751 2.33237 16.8072 2.51032 16.6533C2.67289 16.5127 2.78907 16.3129 2.78907 16.0314ZM5.66016 14.4375C4.80675 14.4375 4.10157 15.1388 4.10157 16.0314C4.10157 16.8536 3.69125 17.4428 3.17333 17.7953C3.69093 18.1604 4.31988 18.375 4.92188 18.375C6.18136 18.375 7.21875 17.3361 7.21875 16.0314C7.21875 15.1388 6.51356 14.4375 5.66016 14.4375Z" fill="#A6A2A0"/>
</svg>
