<svg width="30" height="29" viewBox="0 0 30 29" fill="none" xmlns="http://www.w3.org/2000/svg">
<path d="M6.97186 20.0418C8.94257 22.0992 11.5888 24.8012 14.9105 28.1477C18.1578 24.8508 20.7606 22.1798 22.719 20.1347C24.6773 18.0897 26.177 16.3792 27.2181 15.0034C28.2593 13.6277 28.941 12.444 29.2632 11.4524C29.5855 10.4609 29.7466 9.37018 29.7466 8.18032C29.7466 5.89974 28.9534 3.96621 27.3669 2.37973C25.7804 0.793243 23.8469 0 21.5663 0C20.8474 0 20.1471 0.0867609 19.4654 0.260283C18.7837 0.433805 18.133 0.694087 17.5133 1.04113L14.8733 8.92398H19.3353L15.0964 22.8677L16.3606 10.4113H11.8986L14.204 2.37973C13.386 1.61127 12.4564 1.02254 11.4153 0.613524C10.3741 0.204508 9.29581 0 8.18032 0C5.89974 0 3.96621 0.793243 2.37973 2.37973C0.793243 3.96621 0 5.89974 0 8.18032C0 9.37018 0.15493 10.4485 0.464791 11.4153C0.774651 12.382 1.44395 13.5471 2.47269 14.9105C3.50142 16.2739 5.00115 17.9843 6.97186 20.0418Z" fill="white"/>
</svg>
