<svg width="49" height="44" viewBox="0 0 49 44" fill="none" xmlns="http://www.w3.org/2000/svg">
<g opacity="0.4">
<path d="M2.5 14.6875C2.5 11.9951 4.68883 9.8125 7.38889 9.8125H9.66132C11.2959 9.8125 12.8224 8.99788 13.7291 7.64166L15.7153 4.67084C16.622 3.31462 18.1485 2.5 19.7831 2.5H29.2169C30.8515 2.5 32.378 3.31462 33.2847 4.67084L35.2709 7.64166C36.1776 8.99788 37.7041 9.8125 39.3387 9.8125H41.6111C44.3112 9.8125 46.5 11.9951 46.5 14.6875V36.625C46.5 39.3174 44.3112 41.5 41.6111 41.5H7.38889C4.68883 41.5 2.5 39.3174 2.5 36.625V14.6875Z" stroke="#A6A2A0" stroke-width="5" stroke-linecap="round" stroke-linejoin="round"/>
<path d="M31.8333 24.4375C31.8333 28.4761 28.5501 31.75 24.5 31.75C20.4499 31.75 17.1667 28.4761 17.1667 24.4375C17.1667 20.3989 20.4499 17.125 24.5 17.125C28.5501 17.125 31.8333 20.3989 31.8333 24.4375Z" stroke="#A6A2A0" stroke-width="5" stroke-linecap="round" stroke-linejoin="round"/>
</g>
</svg>
