<svg width="32" height="8" viewBox="0 0 32 8" fill="none" xmlns="http://www.w3.org/2000/svg">
<path d="M27.7756 7.91021C25.6107 7.91021 23.8205 6.12 23.8205 3.9551C23.8205 1.7902 25.6107 0 27.7756 0C29.9405 0 31.7307 1.7902 31.7307 3.9551C31.7307 6.12 29.9405 7.91021 27.7756 7.91021Z" fill="white"/>
<path d="M15.8654 7.91021C13.7005 7.91021 11.9103 6.12 11.9103 3.9551C11.9103 1.7902 13.7005 0 15.8654 0C18.0303 0 19.8205 1.7902 19.8205 3.9551C19.8205 6.12 18.0303 7.91021 15.8654 7.91021Z" fill="white"/>
<path d="M3.9551 7.91021C1.7902 7.91021 0 6.12 0 3.9551C0 1.7902 1.7902 0 3.9551 0C6.12 0 7.9102 1.7902 7.9102 3.9551C7.9102 6.12 6.12 7.91021 3.9551 7.91021Z" fill="white"/>
</svg>
