<svg width="82" height="48" viewBox="0 0 82 48" fill="none" xmlns="http://www.w3.org/2000/svg">
<path d="M70.078 45.2781C70.1098 45.8352 70.261 46.2332 70.5316 46.472C70.8023 46.6948 71.1604 46.8062 71.6061 46.8062C72.1633 46.8062 72.5931 46.663 72.8955 46.3764C73.198 46.0899 73.4527 45.7317 73.6596 45.302C73.8665 44.8562 74.0576 44.3787 74.2327 43.8693C74.4078 43.3599 74.6386 42.8903 74.9251 42.4605C75.2117 42.0148 75.5937 41.6487 76.0713 41.3621C76.5488 41.0756 77.1855 40.9323 77.9815 40.9323C78.268 40.9323 78.4113 41.0915 78.4113 41.4099V47.5226C78.4113 47.8409 78.268 48.0001 77.9815 48.0001H63.1535C62.8351 48.0001 62.6759 47.8409 62.6759 47.5226V28.5637C62.6759 28.2454 62.8351 28.0862 63.1535 28.0862H77.7188C78.1804 28.0862 78.4113 28.325 78.4113 28.8025C78.4113 29.7099 78.2123 30.4819 77.8143 31.1186C77.4323 31.7395 76.9468 32.2727 76.3578 32.7184C75.7847 33.1642 75.1559 33.5382 74.4715 33.8407C73.787 34.1431 73.1502 34.4217 72.5612 34.6764C71.9882 34.9152 71.5027 35.154 71.1047 35.3927C70.7227 35.6315 70.5316 35.9021 70.5316 36.2046C70.5316 36.3956 70.6033 36.5548 70.7465 36.6821C70.8898 36.8095 71.0808 36.8731 71.3196 36.8731C71.5584 36.8731 71.837 36.8095 72.1553 36.6821C72.4737 36.5389 72.7921 36.3956 73.1104 36.2523C73.4288 36.0931 73.7312 35.9499 74.0178 35.8225C74.3202 35.6793 74.567 35.6076 74.758 35.6076C75.0763 35.6076 75.2355 35.8066 75.2355 36.2046V40.5025C75.2355 40.614 75.1719 40.7334 75.0445 40.8607C74.9331 40.9721 74.7739 41.0756 74.567 41.1711C74.3759 41.2666 74.1531 41.3462 73.8984 41.4099C73.6437 41.4577 73.389 41.4815 73.1343 41.4815C72.2429 41.4815 71.4629 41.2109 70.7943 40.6697C70.1257 40.1125 69.6641 39.3803 69.4094 38.4729C69.5367 39.5872 69.6561 40.7254 69.7676 41.8874C69.8949 43.0495 69.9984 44.1797 70.078 45.2781ZM69.2184 36.7538C69.2661 35.9738 69.4492 35.3291 69.7676 34.8197C70.1018 34.3103 70.46 33.8486 70.842 33.4348C71.2241 33.0209 71.5663 32.607 71.8688 32.1931C72.1712 31.7633 72.3225 31.2539 72.3225 30.665C72.3225 29.7417 71.7812 29.2801 70.6988 29.2801C70.0143 29.2801 69.5367 29.479 69.2661 29.877C69.0114 30.259 68.8841 30.9674 68.8841 32.0021C68.8841 32.607 68.9159 33.3154 68.9796 34.1272C69.0433 34.9391 69.1229 35.8146 69.2184 36.7538Z" fill="#F84CAA"/>
<path d="M55.6055 48.0001H48.5616C48.2433 48.0001 48.0841 47.8409 48.0841 47.5226C48.1159 46.265 48.2035 44.9119 48.3467 43.4634C48.49 41.9989 48.6412 40.5503 48.8004 39.1176C48.9596 37.685 49.0949 36.324 49.2063 35.0346C49.3337 33.7293 49.3974 32.607 49.3974 31.6678C49.3974 30.7605 49.3257 30.1397 49.1825 29.8054C49.0551 29.4552 48.8402 29.2801 48.5378 29.2801C48.2353 29.2801 48.0125 29.4233 47.8692 29.7099C47.7418 29.9964 47.6304 30.3625 47.5349 30.8082C47.4553 31.238 47.3518 31.7076 47.2245 32.217C47.1131 32.7264 46.9061 33.204 46.6037 33.6497C46.3012 34.0795 45.8714 34.4376 45.3143 34.7242C44.7571 35.0107 44.009 35.154 43.0698 35.154C42.7355 35.154 42.5684 34.9948 42.5684 34.6764V28.5637C42.5684 28.2454 42.7355 28.0862 43.0698 28.0862H61.0974C61.4317 28.0862 61.5988 28.2454 61.5988 28.5637V34.6764C61.5988 34.9948 61.4317 35.154 61.0974 35.154C60.1582 35.154 59.41 35.0107 58.8529 34.7242C58.2958 34.4376 57.866 34.0795 57.5635 33.6497C57.2611 33.204 57.0462 32.7264 56.9188 32.217C56.8074 31.7076 56.7039 31.238 56.6084 30.8082C56.5288 30.3625 56.4253 29.9964 56.298 29.7099C56.1706 29.4233 55.9478 29.2801 55.6294 29.2801C55.327 29.2801 55.1041 29.4552 54.9608 29.8054C54.8335 30.1397 54.7698 30.7605 54.7698 31.6678C54.7698 32.607 54.8335 33.7293 54.9608 35.0346C55.0882 36.324 55.2235 37.685 55.3668 39.1176C55.526 40.5503 55.6772 41.9989 55.8204 43.4634C55.9637 44.9119 56.0513 46.265 56.0831 47.5226C56.0831 47.8409 55.9239 48.0001 55.6055 48.0001Z" fill="#F84CAA"/>
<path d="M32.6595 43.2246C32.6595 42.9062 32.5004 42.747 32.182 42.747H30.415C30.0967 42.747 29.9375 42.9062 29.9375 43.2246V47.5226C29.9375 47.8409 29.7783 48.0001 29.4599 48.0001H22.3205C21.9862 48.0001 21.8191 47.8409 21.8191 47.5226V41.8874C21.8191 41.5691 21.9783 41.4099 22.2966 41.4099H22.5354C22.8538 41.4099 23.013 41.5691 23.013 41.8874V45.1826C23.013 45.6919 23.0926 46.0899 23.2517 46.3764C23.4269 46.663 23.6656 46.8062 23.9681 46.8062C24.5411 46.8062 24.8277 46.2809 24.8277 45.2303C24.8277 44.4185 24.756 43.7101 24.6128 43.1052C24.4854 42.5003 24.3183 41.9432 24.1113 41.4338C23.9044 40.9244 23.6815 40.4309 23.4428 39.9534C23.204 39.4758 22.9811 38.9664 22.7742 38.4252C22.5673 37.868 22.3922 37.2552 22.2489 36.5866C22.1215 35.918 22.0579 35.1301 22.0579 34.2227C22.0579 33.4109 22.1852 32.6389 22.4399 31.9066C22.7105 31.1584 23.0846 30.5058 23.5622 29.9486C24.0397 29.3756 24.6048 28.9219 25.2575 28.5876C25.926 28.2533 26.6583 28.0862 27.4542 28.0862H35.1428C35.9387 28.0862 36.663 28.2533 37.3157 28.5876C37.9842 28.9219 38.5573 29.3756 39.0349 29.9486C39.5124 30.5058 39.8785 31.1584 40.1332 31.9066C40.4038 32.6389 40.5392 33.4109 40.5392 34.2227C40.5392 35.1301 40.4675 35.918 40.3243 36.5866C40.1969 37.2552 40.0298 37.868 39.8228 38.4252C39.6159 38.9664 39.393 39.4758 39.1542 39.9534C38.9155 40.4309 38.6926 40.9244 38.4857 41.4338C38.2787 41.9432 38.1036 42.5003 37.9604 43.1052C37.833 43.7101 37.7693 44.4185 37.7693 45.2303C37.7693 46.2809 38.0559 46.8062 38.6289 46.8062C38.9314 46.8062 39.1622 46.663 39.3214 46.3764C39.4965 46.0899 39.584 45.6919 39.584 45.1826V41.8874C39.584 41.5691 39.7432 41.4099 40.0616 41.4099H40.3004C40.6187 41.4099 40.7779 41.5691 40.7779 41.8874V47.5226C40.7779 47.8409 40.6108 48.0001 40.2765 48.0001H33.1371C32.8187 48.0001 32.6595 47.8409 32.6595 47.5226V43.2246ZM29.9375 41.0756C29.9375 41.394 30.0967 41.5532 30.415 41.5532H32.182C32.5004 41.5532 32.6595 41.394 32.6595 41.0756V33.4109C32.6595 32.8378 32.6436 32.3523 32.6118 31.9544C32.5959 31.5405 32.5481 31.2221 32.4685 30.9993C32.373 30.7286 32.2138 30.5297 31.991 30.4023C31.784 30.275 31.5532 30.2113 31.2985 30.2113C31.0597 30.2113 30.8289 30.275 30.6061 30.4023C30.3832 30.5297 30.224 30.7286 30.1285 30.9993C30.0489 31.2221 29.9932 31.5405 29.9614 31.9544C29.9454 32.3523 29.9375 32.8378 29.9375 33.4109V41.0756Z" fill="#F84CAA"/>
<path d="M13.276 27.6085C14.247 27.6085 15.1225 27.8553 15.9025 28.3487C16.6984 28.8422 17.375 29.5346 17.9321 30.4261C18.4892 31.3016 18.919 32.3602 19.2215 33.6018C19.5239 34.8434 19.6752 36.2124 19.6752 37.7088C19.6752 41.179 18.8235 43.7657 17.1203 45.469C15.417 47.1563 12.8143 48 9.31227 48H0.477552C0.159184 48 0 47.8408 0 47.5225V28.5636C0 28.2453 0.159184 28.0861 0.477552 28.0861H7.28267C7.60104 28.0861 7.76023 28.2453 7.76023 28.5636C7.76023 29.1526 7.6488 29.7893 7.42594 30.4738C7.20308 31.1424 6.95635 31.8985 6.68573 32.7422C6.41512 33.57 6.16839 34.5012 5.94553 35.5359C5.72267 36.5547 5.61124 37.7167 5.61124 39.022C5.61124 39.2767 5.73859 39.4041 5.99328 39.4041C6.24798 39.4041 6.37533 39.2688 6.37533 38.9982C6.45492 37.4063 6.6539 35.9179 6.97227 34.533C7.30655 33.1481 7.76023 31.9463 8.33329 30.9275C8.90635 29.8928 9.5988 29.081 10.4106 28.492C11.2384 27.903 12.1935 27.6085 13.276 27.6085ZM7.999 46.8061C8.69941 46.8061 9.32819 46.5992 9.88534 46.1853C10.4425 45.7714 10.9121 45.1825 11.2941 44.4184C11.6762 43.6384 11.9706 42.6992 12.1776 41.6008C12.3845 40.4865 12.488 39.229 12.488 37.8281C12.488 36.8253 12.4323 35.8941 12.3209 35.0345C12.2253 34.159 12.0821 33.4028 11.8911 32.7661C11.716 32.1294 11.5011 31.6359 11.2464 31.2857C10.9917 30.9196 10.7211 30.7365 10.4345 30.7365C10.0843 30.7365 9.73411 31.0071 9.38391 31.5483C9.0337 32.0896 8.71533 32.8059 8.4288 33.6973C8.15819 34.5887 7.93533 35.5996 7.76023 36.7298C7.60104 37.86 7.52145 39.0141 7.52145 40.192V46.3525C7.52145 46.6549 7.68063 46.8061 7.999 46.8061Z" fill="#F84CAA"/>
<path d="M60.5849 0.811826C60.5371 0.716316 60.5451 0.636724 60.6088 0.57305C60.6724 0.509376 60.768 0.477539 60.8953 0.477539H67.5333C67.8039 0.477539 67.9949 0.588968 68.1063 0.811826L73.9802 12.1298C74.0917 12.3368 74.227 12.4402 74.3862 12.4402C74.5294 12.4402 74.6329 12.3527 74.6966 12.1776C74.9035 11.6204 74.999 11.0792 74.9831 10.5539C74.9672 10.0127 74.8876 9.47144 74.7443 8.93022C74.6011 8.38899 74.418 7.84777 74.1951 7.30654C73.9882 6.74939 73.7972 6.17633 73.6221 5.58735C73.447 4.98245 73.3117 4.36163 73.2162 3.7249C73.1366 3.07224 73.1604 2.37979 73.2878 1.64754C73.3674 1.20183 73.5505 0.899378 73.837 0.740194C74.1235 0.565091 74.609 0.477539 75.2935 0.477539H81.5256C81.6529 0.477539 81.7484 0.509376 81.8121 0.57305C81.8758 0.636724 81.8837 0.716316 81.836 0.811826L75.1264 13.8013C74.999 14.0559 74.9194 14.3027 74.8876 14.5415C74.8717 14.7802 74.8876 15.1225 74.9354 15.5682C74.999 16.0457 75.0547 16.6506 75.1025 17.3829C75.1503 18.1151 75.19 18.9588 75.2219 19.9139C75.2219 20.2323 75.0627 20.3915 74.7443 20.3915H67.7004C67.3821 20.3915 67.2229 20.2323 67.2229 19.9139C67.2547 18.9588 67.2945 18.1231 67.3423 17.4068C67.39 16.6904 67.4378 16.1094 67.4855 15.6637C67.5492 15.1543 67.5651 14.7802 67.5333 14.5415C67.5174 14.2868 67.4457 14.04 67.3184 13.8013L60.5849 0.811826Z" fill="#F84CAA"/>
<path d="M58.7529 20.3915H43.5906C43.2722 20.3915 43.113 20.2323 43.113 19.9139V0.955092C43.113 0.636724 43.2722 0.477539 43.5906 0.477539H50.3957C50.7141 0.477539 50.8733 0.636724 50.8733 0.955092C50.8414 2.21265 50.7539 3.57367 50.6106 5.03817C50.4673 6.48674 50.3161 7.92736 50.1569 9.36001C50.0137 10.7927 49.8784 12.1617 49.751 13.467C49.6237 14.7564 49.56 15.8706 49.56 16.8098C49.56 17.7013 49.6873 18.3221 49.942 18.6723C50.2127 19.0225 50.6902 19.1976 51.3747 19.1976C51.8841 19.1976 52.282 19.0464 52.5686 18.7439C52.8551 18.4415 52.9984 17.8843 52.9984 17.0725C52.9984 16.5472 52.9506 15.9662 52.8551 15.3294C52.7755 14.6768 52.7357 13.9843 52.7357 13.2521C52.7357 12.5198 52.8392 11.8592 53.0461 11.2702C53.2531 10.6812 53.5396 10.1798 53.9057 9.76593C54.2878 9.33614 54.7414 9.00981 55.2667 8.78695C55.7921 8.56409 56.3731 8.45267 57.0098 8.45267C57.1372 8.45267 57.2963 8.46062 57.4874 8.47654C57.6943 8.47654 57.8853 8.50042 58.0604 8.54818C58.2515 8.59593 58.4106 8.66756 58.538 8.76307C58.6812 8.85858 58.7529 9.00185 58.7529 9.19287V14.0878C58.7529 14.3266 58.6972 14.4937 58.5857 14.5892C58.4743 14.6847 58.3231 14.7325 58.1321 14.7325C57.8933 14.7325 57.6068 14.6768 57.2725 14.5653C56.9382 14.4539 56.588 14.3345 56.2219 14.2072C55.8716 14.0639 55.5294 13.9366 55.1951 13.8251C54.8608 13.7137 54.5663 13.658 54.3116 13.658C54.1047 13.658 53.9774 13.7217 53.9296 13.849C53.8818 13.9604 53.9455 14.0798 54.1206 14.2072C54.2639 14.3027 54.4788 14.4141 54.7653 14.5415C55.0678 14.6688 55.4021 14.828 55.7682 15.019C56.1343 15.1941 56.5084 15.417 56.8904 15.6876C57.2884 15.9423 57.6466 16.2606 57.9649 16.6427C58.2992 17.0088 58.5698 17.4466 58.7768 17.956C58.9837 18.4653 59.0872 19.0464 59.0872 19.699C59.0872 19.9696 59.0553 20.1527 58.9917 20.2482C58.9439 20.3437 58.8643 20.3915 58.7529 20.3915Z" fill="#F84CAA"/>
<path d="M26.3098 20.3915C25.5457 20.3915 24.8374 20.097 24.1847 19.508C23.5321 18.9031 22.9669 18.1152 22.4894 17.1441C22.0278 16.1731 21.6616 15.0827 21.391 13.8729C21.1204 12.6472 20.9851 11.4135 20.9851 10.1719C20.9851 8.51635 21.2239 7.05982 21.7014 5.80226C22.179 4.52879 22.8555 3.46226 23.731 2.60266C24.6065 1.74307 25.6492 1.09837 26.859 0.668573C28.0688 0.222858 29.4139 0 30.8943 0C32.3429 0 33.6721 0.222858 34.8819 0.668573C36.0917 1.09837 37.1264 1.74307 37.986 2.60266C38.8615 3.46226 39.538 4.52879 40.0156 5.80226C40.4931 7.05982 40.7319 8.51635 40.7319 10.1719C40.7319 11.4135 40.5966 12.6472 40.326 13.8729C40.0554 15.0827 39.6813 16.1731 39.2037 17.1441C38.7262 18.1152 38.1611 18.9031 37.5084 19.508C36.8717 20.097 36.1713 20.3915 35.4072 20.3915H26.3098ZM29.5094 16.0696C29.6368 16.4198 29.8278 16.6825 30.0825 16.8576C30.3531 17.0168 30.6237 17.0964 30.8943 17.0964C31.1649 17.0964 31.4196 17.0168 31.6584 16.8576C31.9131 16.6984 32.1041 16.4596 32.2315 16.1413C32.4066 15.7115 32.5419 14.9235 32.6374 13.7774C32.7329 12.6153 32.7807 11.2304 32.7807 9.62268C32.7807 7.63288 32.7329 6.06492 32.6374 4.91879C32.5578 3.77267 32.4384 2.9847 32.2792 2.55491C32.1519 2.15695 31.9529 1.86245 31.6823 1.67143C31.4117 1.48041 31.1251 1.3849 30.8227 1.3849C30.5521 1.3849 30.2974 1.46449 30.0586 1.62368C29.8198 1.78286 29.6368 2.0296 29.5094 2.36388C29.3502 2.77776 29.2149 3.55777 29.1035 4.70389C29.008 5.8341 28.9602 7.40206 28.9602 9.40778C28.9602 10.2196 28.9762 10.9837 29.008 11.7C29.0398 12.4004 29.0796 13.0451 29.1274 13.6341C29.1751 14.2072 29.2308 14.7007 29.2945 15.1145C29.3582 15.5284 29.4298 15.8468 29.5094 16.0696Z" fill="#F84CAA"/>
<path d="M7.52145 17.3113V19.9139C7.52145 20.2323 7.36227 20.3915 7.0439 20.3915H0.477553C0.159184 20.3915 0 20.2323 0 19.9139V0.955092C0 0.636724 0.159184 0.477539 0.477553 0.477539C0.955105 0.477539 1.52817 0.477539 2.19674 0.477539C2.88123 0.477539 3.59756 0.477539 4.34573 0.477539C5.10981 0.477539 5.8739 0.485498 6.63798 0.501416C7.40206 0.501416 8.10248 0.501416 8.73921 0.501416C9.37595 0.501416 9.90922 0.501416 10.339 0.501416C10.7847 0.501416 11.0633 0.501416 11.1747 0.501416C12.5756 0.501416 13.7694 0.612845 14.7564 0.835703C15.7433 1.05856 16.5472 1.40081 17.168 1.86244C17.7888 2.30816 18.2425 2.8653 18.529 3.53387C18.8156 4.20245 18.9588 4.99041 18.9588 5.89776C18.9588 6.72552 18.8394 7.46572 18.6007 8.11838C18.3619 8.77103 17.9799 9.33614 17.4545 9.81369C16.9292 10.2753 16.2527 10.6574 15.4249 10.9598C14.6131 11.2623 13.6262 11.4851 12.4641 11.6284C12.0662 11.6761 11.6284 11.7319 11.1509 11.7955C10.6733 11.8592 10.2117 11.9786 9.76595 12.1537C9.33615 12.3129 8.94615 12.5437 8.59595 12.8461C8.24574 13.1486 7.99105 13.5704 7.83186 14.1117C7.73635 14.4459 7.65676 14.8996 7.59309 15.4727C7.54533 16.0298 7.52145 16.6427 7.52145 17.3113ZM7.999 1.67142C7.68064 1.67142 7.52145 1.8306 7.52145 2.14897V7.33042C7.52145 7.77613 7.50553 8.17409 7.4737 8.5243C7.45778 8.85859 7.41798 9.18491 7.35431 9.50328C7.29064 9.80573 7.20308 10.1241 7.09166 10.4584C6.98023 10.7927 6.83696 11.1668 6.66186 11.5806C6.439 12.1059 6.25594 12.5915 6.11267 13.0372C5.98533 13.4829 5.88186 13.9286 5.80226 14.3743C5.72267 14.8041 5.66696 15.2578 5.63512 15.7353C5.60328 16.2129 5.58736 16.7541 5.58736 17.359C5.58736 17.6137 5.70675 17.7411 5.94553 17.7411C6.18431 17.7411 6.30369 17.6058 6.30369 17.3351C6.31961 16.2209 6.41512 15.2976 6.59023 14.5653C6.76533 13.8172 6.98819 13.1964 7.2588 12.7029C7.52941 12.2094 7.83186 11.8115 8.16615 11.509C8.51635 11.1906 8.86656 10.9121 9.21676 10.6733C9.56697 10.4345 9.90922 10.1957 10.2435 9.95695C10.5937 9.71818 10.8962 9.42369 11.1509 9.07348C11.4215 8.72328 11.6364 8.28552 11.7955 7.76021C11.9547 7.21899 12.0343 6.5345 12.0343 5.70674C12.0343 4.29 11.7239 3.27122 11.1031 2.6504C10.4823 2.02958 9.44758 1.70326 7.999 1.67142Z" fill="#F84CAA"/>
</svg>
