<svg width="38" height="38" viewBox="0 0 38 38" fill="none" xmlns="http://www.w3.org/2000/svg">
<g clip-path="url(#clip0_406_103)">
<path fill-rule="evenodd" clip-rule="evenodd" d="M5.12248 25.3077C3.03213 27.398 3.03213 30.7871 5.12248 32.8775L5.123 32.878C7.21334 34.9683 10.6025 34.9683 12.6928 32.878L32.8784 12.6924C34.9687 10.602 34.9688 7.21292 32.8784 5.12258L32.8779 5.12205C30.7875 3.03171 27.3984 3.03171 25.3081 5.12205L5.12248 25.3077ZM3.4431 34.5568C0.425261 31.539 0.425261 26.6461 3.4431 23.6283L23.6287 3.44268C26.6465 0.424838 31.5394 0.424838 34.5573 3.44268L34.5578 3.4432C37.5756 6.46104 37.5756 11.3539 34.5578 14.3718L14.3722 34.5574C11.3543 37.5752 6.46146 37.5752 3.44362 34.5574L3.4431 34.5568Z" fill="#383436"/>
<path fill-rule="evenodd" clip-rule="evenodd" d="M20.4685 11.6529C20.0048 11.1891 19.2529 11.1891 18.7892 11.6529L11.8617 18.5803C11.398 19.044 11.398 19.7959 11.8617 20.2597L17.7395 26.1375C18.2033 26.6012 18.9552 26.6012 19.4189 26.1375L26.3464 19.2101C26.8101 18.7463 26.8101 17.9944 26.3464 17.5307L20.4685 11.6529ZM17.1098 9.97347C18.501 8.58223 20.7567 8.58223 22.1479 9.97347L28.0257 15.8513C29.417 17.2425 29.417 19.4982 28.0257 20.8894L21.0983 27.8169C19.7071 29.2081 17.4514 29.2081 16.0602 27.8169L10.1823 21.939C8.7911 20.5478 8.7911 18.2922 10.1823 16.9009L17.1098 9.97347Z" fill="#383436"/>
<path d="M19 16.625C19.6558 16.625 20.1875 16.0933 20.1875 15.4375C20.1875 14.7817 19.6558 14.25 19 14.25C18.3442 14.25 17.8125 14.7817 17.8125 15.4375C17.8125 16.0933 18.3442 16.625 19 16.625Z" fill="#383436"/>
<path d="M22.5625 20.1875C23.2183 20.1875 23.75 19.6558 23.75 19C23.75 18.3442 23.2183 17.8125 22.5625 17.8125C21.9067 17.8125 21.375 18.3442 21.375 19C21.375 19.6558 21.9067 20.1875 22.5625 20.1875Z" fill="#383436"/>
<path d="M15.4375 20.1875C16.0933 20.1875 16.625 19.6558 16.625 19C16.625 18.3442 16.0933 17.8125 15.4375 17.8125C14.7817 17.8125 14.25 18.3442 14.25 19C14.25 19.6558 14.7817 20.1875 15.4375 20.1875Z" fill="#383436"/>
<path d="M19 23.75C19.6558 23.75 20.1875 23.2183 20.1875 22.5625C20.1875 21.9067 19.6558 21.375 19 21.375C18.3442 21.375 17.8125 21.9067 17.8125 22.5625C17.8125 23.2183 18.3442 23.75 19 23.75Z" fill="#383436"/>
</g>
<defs>
<clipPath id="clip0_406_103">
<rect width="38" height="38" fill="white"/>
</clipPath>
</defs>
</svg>
