<svg width="40" height="40" viewBox="0 0 40 40" fill="none" xmlns="http://www.w3.org/2000/svg">
<path fill-rule="evenodd" clip-rule="evenodd" d="M2.5 20C2.5 19.3096 3.05964 18.75 3.75 18.75H36.25C36.9404 18.75 37.5 19.3096 37.5 20C37.5 20.6904 36.9404 21.25 36.25 21.25H3.75C3.05964 21.25 2.5 20.6904 2.5 20Z" fill="#383436"/>
<path fill-rule="evenodd" clip-rule="evenodd" d="M28.75 11.25C28.75 9.86929 29.8693 8.75 31.25 8.75C32.6307 8.75 33.75 9.86929 33.75 11.25V28.75C33.75 30.1307 32.6307 31.25 31.25 31.25C29.8693 31.25 28.75 30.1307 28.75 28.75V11.25Z" fill="#383436"/>
<path fill-rule="evenodd" clip-rule="evenodd" d="M6.25 11.25C6.25 9.86929 7.36929 8.75 8.75 8.75C10.1307 8.75 11.25 9.86929 11.25 11.25V28.75C11.25 30.1307 10.1307 31.25 8.75 31.25C7.36929 31.25 6.25 30.1307 6.25 28.75V11.25Z" fill="#383436"/>
<path fill-rule="evenodd" clip-rule="evenodd" d="M1.25 15.625C1.25 14.5895 2.08947 13.75 3.125 13.75C4.16053 13.75 5 14.5895 5 15.625V24.375C5 25.4105 4.16053 26.25 3.125 26.25C2.08947 26.25 1.25 25.4105 1.25 24.375V15.625Z" fill="#383436"/>
<path fill-rule="evenodd" clip-rule="evenodd" d="M35 15.625C35 14.5895 35.8395 13.75 36.875 13.75C37.9105 13.75 38.75 14.5895 38.75 15.625V24.375C38.75 25.4105 37.9105 26.25 36.875 26.25C35.8395 26.25 35 25.4105 35 24.375V15.625Z" fill="#383436"/>
</svg>
