<svg width="40" height="40" viewBox="0 0 40 40" fill="none" xmlns="http://www.w3.org/2000/svg">
<path d="M31.6667 35V8.33333C31.6667 6.49238 30.1743 5 28.3333 5H11.6667C9.82572 5 8.33333 6.49238 8.33333 8.33333V35M23.3333 35H31.6667L35 35M16.6667 35H8.33333L5 35M15 11.6666H16.6667M15 18.3333H16.6667M23.3333 11.6666H25M23.3333 18.3333H25M16.6667 35V26.6666C16.6667 25.7462 17.4129 25 18.3333 25H21.6667C22.5871 25 23.3333 25.7462 23.3333 26.6666V35M16.6667 35H23.3333" stroke="#383436" stroke-width="3.33333" stroke-linecap="round" stroke-linejoin="round"/>
</svg>
