<svg width="36" height="35" viewBox="0 0 36 35" fill="none" xmlns="http://www.w3.org/2000/svg">
<path d="M24.9385 10.0684V4.77832C24.9383 3.24404 23.6945 2.00015 22.1602 2H4.77832C3.2441 2.00024 2.0002 3.24409 2 4.77832V22.1602C2.00015 23.6944 3.24407 24.9382 4.77832 24.9385H10.8242V13.8477C10.8242 11.761 12.5159 10.0686 14.6025 10.0684H24.9385ZM31.9844 10.0684C34.0712 10.0684 35.7627 11.7609 35.7627 13.8477V31.2285C35.7627 33.3153 34.0712 35.0068 31.9844 35.0068H14.6025C12.5159 35.0066 10.8242 33.3152 10.8242 31.2285V26.9385H4.77832C2.1395 26.9382 0.000153575 24.799 0 22.1602V4.77832C0.00020439 2.13952 2.13953 0.000237825 4.77832 0H22.1602C24.799 0.000153577 26.9383 2.13947 26.9385 4.77832V10.0684H31.9844Z" fill="#383436"/>
</svg>
