<svg width="256" height="154" viewBox="0 0 256 154" fill="none" xmlns="http://www.w3.org/2000/svg">
<g filter="url(#filter0_d_408_16)">
<path d="M215.806 136.85C215.902 138.534 216.36 139.737 217.177 140.459C217.995 141.132 219.078 141.469 220.425 141.469C222.109 141.469 223.408 141.036 224.322 140.17C225.236 139.304 226.006 138.221 226.632 136.922C227.257 135.575 227.834 134.132 228.364 132.592C228.893 131.053 229.59 129.633 230.456 128.334C231.322 126.987 232.477 125.881 233.921 125.014C235.364 124.148 237.288 123.715 239.694 123.715C240.56 123.715 240.993 124.197 240.993 125.159V143.634C240.993 144.596 240.56 145.077 239.694 145.077H194.877C193.915 145.077 193.434 144.596 193.434 143.634V86.3321C193.434 85.3699 193.915 84.8887 194.877 84.8887H238.9C240.295 84.8887 240.993 85.6104 240.993 87.0538C240.993 89.7962 240.392 92.1297 239.189 94.0542C238.034 95.9305 236.567 97.5423 234.787 98.8894C233.055 100.237 231.154 101.367 229.085 102.281C227.016 103.196 225.092 104.037 223.312 104.807C221.58 105.529 220.112 106.251 218.909 106.972C217.755 107.694 217.177 108.512 217.177 109.426C217.177 110.003 217.394 110.485 217.827 110.869C218.26 111.254 218.837 111.447 219.559 111.447C220.281 111.447 221.123 111.254 222.085 110.869C223.047 110.436 224.009 110.003 224.972 109.57C225.934 109.089 226.848 108.656 227.714 108.271C228.628 107.838 229.374 107.622 229.951 107.622C230.914 107.622 231.395 108.223 231.395 109.426V122.416C231.395 122.753 231.202 123.114 230.817 123.499C230.481 123.836 229.999 124.148 229.374 124.437C228.797 124.726 228.123 124.966 227.353 125.159C226.583 125.303 225.814 125.375 225.044 125.375C222.349 125.375 219.992 124.557 217.971 122.922C215.951 121.238 214.555 119.024 213.785 116.282C214.17 119.65 214.531 123.09 214.868 126.602C215.253 130.114 215.566 133.53 215.806 136.85ZM213.208 111.086C213.352 108.728 213.906 106.78 214.868 105.24C215.878 103.701 216.961 102.305 218.116 101.055C219.27 99.8036 220.305 98.5527 221.219 97.3017C222.133 96.0027 222.59 94.4631 222.59 92.6829C222.59 89.8924 220.954 88.4972 217.683 88.4972C215.614 88.4972 214.17 89.0986 213.352 90.3014C212.583 91.4561 212.198 93.5971 212.198 96.7244C212.198 98.5527 212.294 100.694 212.486 103.147C212.679 105.601 212.919 108.247 213.208 111.086Z" fill="white"/>
<path d="M172.064 145.077H150.774C149.812 145.077 149.331 144.596 149.331 143.634C149.427 139.833 149.692 135.744 150.125 131.365C150.558 126.939 151.015 122.561 151.496 118.231C151.977 113.901 152.386 109.787 152.723 105.89C153.108 101.945 153.3 98.5527 153.3 95.714C153.3 92.9716 153.084 91.0952 152.651 90.0849C152.266 89.0264 151.616 88.4972 150.702 88.4972C149.788 88.4972 149.115 88.9302 148.682 89.7962C148.297 90.6622 147.96 91.7688 147.671 93.116C147.431 94.415 147.118 95.8343 146.733 97.3739C146.396 98.9135 145.771 100.357 144.857 101.704C143.943 103.003 142.643 104.086 140.96 104.952C139.276 105.818 137.014 106.251 134.176 106.251C133.165 106.251 132.66 105.77 132.66 104.807V86.3321C132.66 85.3699 133.165 84.8887 134.176 84.8887H188.663C189.673 84.8887 190.179 85.3699 190.179 86.3321V104.807C190.179 105.77 189.673 106.251 188.663 106.251C185.824 106.251 183.563 105.818 181.879 104.952C180.195 104.086 178.896 103.003 177.982 101.704C177.068 100.357 176.418 98.9135 176.034 97.3739C175.697 95.8343 175.384 94.415 175.095 93.116C174.855 91.7688 174.542 90.6622 174.157 89.7962C173.772 88.9302 173.099 88.4972 172.136 88.4972C171.222 88.4972 170.549 89.0264 170.116 90.0849C169.731 91.0952 169.538 92.9716 169.538 95.714C169.538 98.5527 169.731 101.945 170.116 105.89C170.501 109.787 170.91 113.901 171.343 118.231C171.824 122.561 172.281 126.939 172.714 131.365C173.147 135.744 173.411 139.833 173.508 143.634C173.508 144.596 173.026 145.077 172.064 145.077Z" fill="white"/>
<path d="M102.711 130.644C102.711 129.681 102.23 129.2 101.268 129.2H95.9275C94.9653 129.2 94.4841 129.681 94.4841 130.644V143.634C94.4841 144.596 94.003 145.077 93.0408 145.077H71.4624C70.452 145.077 69.9468 144.596 69.9468 143.634V126.602C69.9468 125.64 70.4279 125.159 71.3902 125.159H72.1119C73.0741 125.159 73.5552 125.64 73.5552 126.602V136.561C73.5552 138.101 73.7958 139.304 74.2769 140.17C74.8062 141.036 75.5278 141.469 76.442 141.469C78.174 141.469 79.0401 139.881 79.0401 136.706C79.0401 134.252 78.8236 132.111 78.3905 130.283C78.0056 128.455 77.5005 126.771 76.875 125.231C76.2495 123.691 75.576 122.2 74.8543 120.757C74.1326 119.313 73.459 117.774 72.8336 116.138C72.2081 114.454 71.6789 112.601 71.2458 110.581C70.8609 108.56 70.6685 106.178 70.6685 103.436C70.6685 100.982 71.0534 98.6489 71.8232 96.4357C72.6411 94.1744 73.7717 92.2018 75.2151 90.5179C76.6585 88.7858 78.3665 87.4146 80.3391 86.4043C82.3598 85.3939 84.573 84.8887 86.9786 84.8887H110.217C112.623 84.8887 114.812 85.3939 116.784 86.4043C118.805 87.4146 120.537 88.7858 121.98 90.5179C123.424 92.2018 124.53 94.1744 125.3 96.4357C126.118 98.6489 126.527 100.982 126.527 103.436C126.527 106.178 126.311 108.56 125.877 110.581C125.493 112.601 124.987 114.454 124.362 116.138C123.736 117.774 123.063 119.313 122.341 120.757C121.62 122.2 120.946 123.691 120.321 125.231C119.695 126.771 119.166 128.455 118.733 130.283C118.348 132.111 118.155 134.252 118.155 136.706C118.155 139.881 119.021 141.469 120.754 141.469C121.668 141.469 122.365 141.036 122.846 140.17C123.376 139.304 123.64 138.101 123.64 136.561V126.602C123.64 125.64 124.121 125.159 125.084 125.159H125.805C126.768 125.159 127.249 125.64 127.249 126.602V143.634C127.249 144.596 126.744 145.077 125.733 145.077H104.155C103.192 145.077 102.711 144.596 102.711 143.634V130.644ZM94.4841 124.148C94.4841 125.111 94.9653 125.592 95.9275 125.592H101.268C102.23 125.592 102.711 125.111 102.711 124.148V100.982C102.711 99.2503 102.663 97.7829 102.567 96.5801C102.519 95.3291 102.375 94.3669 102.134 93.6933C101.845 92.8754 101.364 92.274 100.691 91.8891C100.065 91.5042 99.3675 91.3117 98.5977 91.3117C97.8761 91.3117 97.1784 91.5042 96.5049 91.8891C95.8313 92.274 95.3502 92.8754 95.0615 93.6933C94.8209 94.3669 94.6525 95.3291 94.5563 96.5801C94.5082 97.7829 94.4841 99.2503 94.4841 100.982V124.148Z" fill="white"/>
<path d="M44.1257 83.445C47.0606 83.445 49.7068 84.1908 52.0643 85.6822C54.4699 87.1737 56.5147 89.2666 58.1986 91.9609C59.8826 94.6071 61.1816 97.8066 62.0957 101.559C63.0099 105.312 63.4669 109.45 63.4669 113.972C63.4669 124.461 60.8929 132.279 55.7449 137.427C50.5969 142.527 42.7305 145.077 32.1458 145.077H5.44337C4.48112 145.077 4 144.596 4 143.634V86.3318C4 85.3695 4.48112 84.8884 5.44337 84.8884H26.0114C26.9737 84.8884 27.4548 85.3695 27.4548 86.3318C27.4548 88.1119 27.118 90.0364 26.4444 92.1053C25.7709 94.126 25.0251 96.4113 24.2072 98.9613C23.3893 101.463 22.6436 104.278 21.97 107.405C21.2964 110.484 20.9596 113.996 20.9596 117.942C20.9596 118.711 21.3445 119.096 22.1143 119.096C22.8841 119.096 23.269 118.687 23.269 117.869C23.5096 113.058 24.111 108.56 25.0732 104.374C26.0836 100.188 27.4548 96.5556 29.1868 93.4764C30.9189 90.3491 33.0118 87.8954 35.4655 86.1153C37.9674 84.3351 40.8541 83.445 44.1257 83.445ZM28.1765 141.469C30.2934 141.469 32.1939 140.843 33.8778 139.592C35.5617 138.341 36.981 136.561 38.1357 134.252C39.2904 131.894 40.1805 129.056 40.806 125.736C41.4314 122.368 41.7442 118.567 41.7442 114.333C41.7442 111.302 41.5758 108.488 41.239 105.889C40.9503 103.243 40.5173 100.958 39.94 99.0334C39.4107 97.1089 38.7612 95.6175 37.9914 94.559C37.2216 93.4524 36.4037 92.8991 35.5377 92.8991C34.4792 92.8991 33.4207 93.717 32.3623 95.3528C31.3038 96.9887 30.3415 99.1537 29.4755 101.848C28.6576 104.542 27.984 107.597 27.4548 111.013C26.9737 114.429 26.7331 117.918 26.7331 121.478V140.097C26.7331 141.012 27.2142 141.469 28.1765 141.469Z" fill="white"/>
<path d="M187.114 2.45369C186.97 2.16502 186.994 1.92445 187.186 1.732C187.379 1.53955 187.667 1.44333 188.052 1.44333H208.115C208.933 1.44333 209.51 1.78012 209.847 2.45369L227.601 36.6616C227.937 37.2871 228.346 37.5998 228.827 37.5998C229.26 37.5998 229.573 37.3352 229.766 36.8059C230.391 35.122 230.68 33.4862 230.632 31.8985C230.584 30.2627 230.343 28.6268 229.91 26.991C229.477 25.3552 228.924 23.7194 228.25 22.0835C227.625 20.3996 227.047 18.6676 226.518 16.8874C225.989 15.0591 225.58 13.1828 225.291 11.2583C225.051 9.28565 225.123 7.19276 225.508 4.97959C225.748 3.63245 226.302 2.71831 227.168 2.23719C228.034 1.70795 229.501 1.44333 231.57 1.44333H250.406C250.791 1.44333 251.079 1.53955 251.272 1.732C251.464 1.92445 251.488 2.16502 251.344 2.45369L231.065 41.7134C230.68 42.4832 230.439 43.229 230.343 43.9506C230.295 44.6723 230.343 45.7067 230.487 47.0539C230.68 48.4973 230.848 50.3255 230.993 52.5387C231.137 54.7519 231.257 57.3018 231.353 60.1886C231.353 61.1508 230.872 61.6319 229.91 61.6319H208.62C207.658 61.6319 207.177 61.1508 207.177 60.1886C207.273 57.3018 207.393 54.7759 207.538 52.6109C207.682 50.4458 207.826 48.6897 207.971 47.3426C208.163 45.803 208.211 44.6723 208.115 43.9506C208.067 43.1808 207.85 42.4351 207.466 41.7134L187.114 2.45369Z" fill="white"/>
<path d="M181.577 61.6319H135.75C134.788 61.6319 134.306 61.1508 134.306 60.1886V2.8867C134.306 1.92445 134.788 1.44333 135.75 1.44333H156.318C157.28 1.44333 157.761 1.92445 157.761 2.8867C157.665 6.68758 157.4 10.8012 156.967 15.2275C156.534 19.6058 156.077 23.9599 155.596 28.2901C155.163 32.6202 154.754 36.7578 154.369 40.7031C153.984 44.6002 153.792 47.968 153.792 50.8067C153.792 53.501 154.177 55.3773 154.947 56.4358C155.765 57.4943 157.208 58.0235 159.277 58.0235C160.816 58.0235 162.019 57.5664 162.885 56.6523C163.751 55.7382 164.184 54.0542 164.184 51.6005C164.184 50.0128 164.04 48.2567 163.751 46.3322C163.511 44.3596 163.39 42.2667 163.39 40.0535C163.39 37.8404 163.703 35.8437 164.329 34.0635C164.954 32.2834 165.82 30.7678 166.927 29.5169C168.081 28.2179 169.453 27.2316 171.04 26.558C172.628 25.8844 174.384 25.5476 176.309 25.5476C176.693 25.5476 177.175 25.5717 177.752 25.6198C178.377 25.6198 178.955 25.692 179.484 25.8363C180.061 25.9807 180.542 26.1972 180.927 26.4858C181.36 26.7745 181.577 27.2075 181.577 27.7849V42.5794C181.577 43.3011 181.408 43.8063 181.072 44.095C180.735 44.3836 180.278 44.528 179.7 44.528C178.979 44.528 178.113 44.3596 177.102 44.0228C176.092 43.686 175.034 43.3252 173.927 42.9403C172.869 42.5073 171.834 42.1224 170.824 41.7856C169.813 41.4488 168.923 41.2804 168.154 41.2804C167.528 41.2804 167.143 41.4728 166.999 41.8577C166.854 42.1945 167.047 42.5554 167.576 42.9403C168.009 43.229 168.659 43.5657 169.525 43.9506C170.439 44.3355 171.449 44.8167 172.556 45.394C173.662 45.9232 174.793 46.5968 175.948 47.4147C177.151 48.1845 178.233 49.1468 179.195 50.3015C180.206 51.4081 181.024 52.7312 181.649 54.2707C182.274 55.8103 182.587 57.5664 182.587 59.5391C182.587 60.357 182.491 60.9103 182.299 61.1989C182.154 61.4876 181.914 61.6319 181.577 61.6319Z" fill="white"/>
<path d="M83.5198 61.632C81.2104 61.632 79.0694 60.7419 77.0968 58.9618C75.1242 57.1335 73.4162 54.7519 71.9728 51.8171C70.5775 48.8822 69.471 45.5865 68.653 41.93C67.8351 38.2253 67.4262 34.4966 67.4262 30.7438C67.4262 25.7401 68.1479 21.3379 69.5912 17.537C71.0346 13.688 73.0794 10.4644 75.7256 7.86638C78.3718 5.26831 81.5231 3.31976 85.1797 2.02072C88.8362 0.673574 92.9017 0 97.3762 0C101.754 0 105.772 0.673574 109.428 2.02072C113.085 3.31976 116.212 5.26831 118.81 7.86638C121.456 10.4644 123.501 13.688 124.945 17.537C126.388 21.3379 127.11 25.7401 127.11 30.7438C127.11 34.4966 126.701 38.2253 125.883 41.93C125.065 45.5865 123.934 48.8822 122.491 51.8171C121.047 54.7519 119.339 57.1335 117.367 58.9618C115.442 60.7419 113.325 61.632 111.016 61.632H83.5198ZM93.1904 48.5695C93.5753 49.6279 94.1526 50.4218 94.9224 50.951C95.7403 51.4322 96.5582 51.6727 97.3762 51.6727C98.1941 51.6727 98.9639 51.4322 99.6856 50.951C100.455 50.4699 101.033 49.7482 101.418 48.786C101.947 47.4869 102.356 45.1054 102.644 41.6413C102.933 38.1291 103.077 33.9433 103.077 29.0839C103.077 23.0699 102.933 18.3308 102.644 14.8667C102.404 11.4026 102.043 9.02108 101.562 7.72204C101.177 6.51923 100.576 5.62915 99.7577 5.0518C98.9398 4.47445 98.0738 4.18578 97.1597 4.18578C96.3417 4.18578 95.5719 4.42634 94.8503 4.90747C94.1286 5.38859 93.5753 6.13433 93.1904 7.14469C92.7092 8.39561 92.3003 10.7531 91.9635 14.2172C91.6748 17.6332 91.5305 22.3723 91.5305 28.4344C91.5305 30.8882 91.5786 33.1976 91.6748 35.3626C91.7711 37.4796 91.8913 39.4281 92.0357 41.2083C92.18 42.9403 92.3484 44.4318 92.5409 45.6827C92.7333 46.9337 92.9498 47.8959 93.1904 48.5695Z" fill="white"/>
<path d="M26.7331 52.3222V60.1886C26.7331 61.1508 26.252 61.6319 25.2897 61.6319H5.44337C4.48112 61.6319 4 61.1508 4 60.1886V2.8867C4 1.92445 4.48112 1.44333 5.44337 1.44333C6.88674 1.44333 8.61879 1.44333 10.6395 1.44333C12.7083 1.44333 14.8734 1.44333 17.1347 1.44333C19.4441 1.44333 21.7535 1.46738 24.0629 1.5155C26.3723 1.5155 28.4892 1.5155 30.4137 1.5155C32.3382 1.5155 33.95 1.5155 35.249 1.5155C36.5962 1.5155 37.4381 1.5155 37.7749 1.5155C42.0088 1.5155 45.6172 1.85228 48.6002 2.52586C51.5832 3.19943 54.0129 4.23385 55.8892 5.62911C57.7656 6.97626 59.1368 8.66019 60.0028 10.6809C60.8689 12.7016 61.3019 15.0832 61.3019 17.8256C61.3019 20.3274 60.941 22.5647 60.2194 24.5373C59.4977 26.5099 58.343 28.2179 56.7553 29.6613C55.1676 31.0565 53.1228 32.2112 50.6209 33.1254C48.1672 34.0395 45.1842 34.7131 41.672 35.1461C40.4692 35.2904 39.1461 35.4588 37.7027 35.6512C36.2594 35.8437 34.8641 36.2045 33.517 36.7338C32.2179 37.2149 31.0392 37.9125 29.9807 38.8267C28.9222 39.7408 28.1524 41.0158 27.6713 42.6516C27.3826 43.662 27.1421 45.0332 26.9496 46.7652C26.8053 48.4491 26.7331 50.3015 26.7331 52.3222ZM28.1765 5.05176C27.2142 5.05176 26.7331 5.53288 26.7331 6.49513V22.1557C26.7331 23.5029 26.685 24.7057 26.5888 25.7642C26.5407 26.7745 26.4204 27.7608 26.2279 28.7231C26.0355 29.6372 25.7709 30.5994 25.4341 31.6098C25.0973 32.6202 24.6643 33.7508 24.135 35.0017C23.4615 36.5894 22.9082 38.0569 22.4752 39.404C22.0903 40.7512 21.7775 42.0983 21.537 43.4455C21.2964 44.7445 21.128 46.1157 21.0318 47.5591C20.9356 49.0024 20.8875 50.6383 20.8875 52.4665C20.8875 53.2363 21.2483 53.6212 21.97 53.6212C22.6917 53.6212 23.0525 53.2123 23.0525 52.3944C23.1006 49.0265 23.3893 46.236 23.9185 44.0228C24.4478 41.7615 25.1213 39.8851 25.9393 38.3937C26.7572 36.9022 27.6713 35.6994 28.6817 34.7852C29.7401 33.823 30.7986 32.981 31.8571 32.2593C32.9156 31.5376 33.95 30.816 34.9603 30.0943C36.0188 29.3726 36.9329 28.4825 37.7027 27.424C38.5207 26.3656 39.1702 25.0425 39.6513 23.4548C40.1324 21.8189 40.373 19.7501 40.373 17.2483C40.373 12.9662 39.4348 9.88706 37.5584 8.01067C35.682 6.13429 32.5547 5.14798 28.1765 5.05176Z" fill="white"/>
</g>
<defs>
<filter id="filter0_d_408_16" x="0" y="0" width="255.437" height="153.077" filterUnits="userSpaceOnUse" color-interpolation-filters="sRGB">
<feFlood flood-opacity="0" result="BackgroundImageFix"/>
<feColorMatrix in="SourceAlpha" type="matrix" values="0 0 0 0 0 0 0 0 0 0 0 0 0 0 0 0 0 0 127 0" result="hardAlpha"/>
<feOffset dy="4"/>
<feGaussianBlur stdDeviation="2"/>
<feComposite in2="hardAlpha" operator="out"/>
<feColorMatrix type="matrix" values="0 0 0 0 0 0 0 0 0 0 0 0 0 0 0 0 0 0 0.25 0"/>
<feBlend mode="normal" in2="BackgroundImageFix" result="effect1_dropShadow_408_16"/>
<feBlend mode="normal" in="SourceGraphic" in2="effect1_dropShadow_408_16" result="shape"/>
</filter>
</defs>
</svg>
